<svg xmlns="http://www.w3.org/2000/svg" viewBox="0 0 1153 777.01"><defs><style>.cls-1{fill:#444242;}.cls-2{fill:#3c6;}</style></defs><g id="Camada_2" data-name="Camada 2"><g id="Camada_1-2" data-name="Camada 1"><g id="Elemento2"><rect class="cls-1" x="394.2" y="181.27" width="362.96" height="406.78"/><path class="cls-1" d="M575.68,0C475.62,0,394.2,81.32,394.2,181.27s81.42,181.27,181.48,181.27,181.49-81.32,181.49-181.27V0"/><path class="cls-2" d="M185.46,10.5C85.39,10.5,4,91.81,4,191.76S85.39,373,185.46,373H366.94V191.76C366.94,91.81,285.53,10.5,185.46,10.5Z"/><path class="cls-2" d="M181.48,366.52C281.55,366.52,363,285.2,363,185.25S281.55,4,181.48,4H0V185.25C0,285.2,81.41,366.52,181.48,366.52"/><rect class="cls-2" x="393.03" y="407.24" width="366.94" height="369.77" rx="183.47"/><path class="cls-1" d="M971.52,0C1071.59,0,1153,81.33,1153,181.28s-81.41,181.27-181.48,181.27S790,281.23,790,181.28V0"/><path class="cls-1" d="M228.26,394.21H370.2a0,0,0,0,1,0,0V764a0,0,0,0,1,0,0H3.26a0,0,0,0,1,0,0V619.21a225,225,0,0,1,225-225Z"/><path class="cls-2" d="M971.52,410.5C871.45,410.5,790,491.82,790,591.77S871.45,773,971.52,773,1153,691.72,1153,591.77V410.5"/></g></g></g></svg>