<svg xmlns="http://www.w3.org/2000/svg" viewBox="0 0 243.29 237.11"><defs><style>.cls-1{fill:#00c454;}</style></defs><g id="Camada_2" data-name="Camada 2"><g id="Camada_1-2" data-name="Camada 1"><g id="Logo"><path class="cls-1" d="M215.72,111.3c2.54-.59,5.05-1.23,7.58-1.84l15.22-3.71c1.59-.38,3.2-.7,4.75-1.23a3.7,3.7,0,0,0-.28-1.47q-1.81-7.48-3.65-15c-.6-2.48-1.19-5-1.8-7.45q-1.81-7.48-3.64-15-1.5-6.15-3-12.32-1.82-7.47-3.65-15l-1.95-8.08q-1.65-6.82-3.29-13.65c-.76-3.13-1.52-6.26-2.32-9.38-.4-1.54-.65-3.13-1.17-4.64-.26-.26-.54-.12-.83-.06q-7.5,1.8-15,3.65L172.12,13.7l-35.8,8.71c-6.19,1.5-12.39,3-18.57,4.54-.91.22-.92.22-1.13-.66q-1.86-7.72-3.75-15.44-1.25-5.1-2.48-10.22c-.08-.3-.14-.56-.5-.63,0,.05-.1.12-.17.14-5.2,1.24-10.41,2.43-15.59,3.72Q88.34,5.3,82.54,6.7,77.13,8,71.71,9.32c-5.55,1.32-11.07,2.73-16.61,4.09-3.53.86-7.09,1.64-10.62,2.53-5.48,1.39-11,2.7-16.47,4-4.54,1.09-9.07,2.21-13.6,3.33-2.95.72-5.9,1.46-8.85,2.19-.16.22-.07.46-.06.71a13.92,13.92,0,0,0,.68,2.85q2.61,10.66,5.19,21.34l5.19,21.33Q20,85.9,23.45,100.08q2.94,12.06,5.88,24.13c.24.94.21,1-.78,1.23L14,129C9.68,130,5.31,131.06,1,132.17c-.42.1-.81.22-1,.68a.76.76,0,0,1,.12.19c1,4.22,2,8.44,3,12.66.76,3.14,1.56,6.28,2.33,9.42C6.63,159.91,7.83,164.7,9,169.5a40.07,40.07,0,0,1,1,4.62c.47,1.41.73,2.87,1.1,4.3,1,3.84,1.87,7.68,2.8,11.53.88,3.63,1.78,7.26,2.65,10.89,1.32,5.55,2.72,11.07,4.08,16.61.81,3.28,1.58,6.57,2.38,9.85.63,2.6,1.27,5.2,1.9,7.8.26.33.56.07.8,0,2.92-.68,5.82-1.43,8.75-2.1,5.06-1.27,10.14-2.47,15.21-3.72Q63,226,76.38,222.78c11.73-2.85,23.46-5.74,35.21-8.55,5.19-1.24,10.33-2.69,15.58-3.67.68-.24.58.37.66.68.91,3.58,1.76,7.18,2.63,10.78,1,3.95,1.94,7.9,2.89,11.86a7.25,7.25,0,0,0,.72,2.3c.15.24.24.5.38.74s.47.17.73.11c8.59-2.08,17.17-4.22,25.78-6.24,7.49-1.75,14.95-3.63,22.42-5.44,3.81-.92,7.59-1.94,11.43-2.72,1.61-.37,3.23-.73,4.84-1.12l11.79-2.87,15.55-3.8c2.7-.65,5.41-1.26,8.09-2a23.49,23.49,0,0,0,3.87-1c.19-.25.08-.52,0-.77-.51-2.13-1-4.25-1.54-6.37q-3.66-15-7.31-30-3.59-14.73-7.17-29.46-4-16.36-8-32.74C214.76,111.51,214.76,111.52,215.72,111.3ZM212,111c-8.33,2-16.64,4.07-25,6.07-.46.1-.92.2-1.36.34s-.64.44-.34.9c.89,3.22,1.61,6.47,2.41,9.71q3.87,15.8,7.69,31.6c2.22,9.07,4.41,18.16,6.63,27.23a6.45,6.45,0,0,1,.25,1.38c.06.67-.22.89-.92,1a36.93,36.93,0,0,0-4,.92c-8.78,2.16-17.56,4.27-26.33,6.42q-10.83,2.65-21.68,5.27c-5.79,1.41-11.58,2.84-17.38,4.22l-.07,0c-.37,0-.69.47-1,.24s-.31-.75-.41-1.15c-1.9-7.81-3.78-15.63-5.71-23.44-.13-.5-.24-1-.33-1.51s-.45-.71-1-.58a7.89,7.89,0,0,0-1.34.39L114,182c-2,.52-3.95.93-5.92,1.46-1.67.39-3.33.79-5,1.2-2.81.7-5.63,1.35-8.43,2.09a2.15,2.15,0,0,1-.51,0,23,23,0,0,0-2.29.53c-2.65.63-5.29,1.26-7.93,1.94-3.12.7-6.21,1.49-9.32,2.25-3.53.86-7.07,1.7-10.59,2.59a2,2,0,0,0-.63.21c-2.58.66-5.18,1.29-7.77,1.9-1.41.34-2.8.72-4.21,1-.28.06-.58.24-.77-.14q-.87-3.66-1.75-7.32Q46,178,43.12,166.19c-1.32-5.42-2.62-10.83-3.94-16.25q-2.67-11-5.36-22c-.23-.93-.21-.93.71-1.16l19.09-4.66c3.08-.75,6.15-1.51,9.24-2.23.54-.13.58-.35.46-.82Q60.65,108.23,58,97.39,56,89.2,54,81L50,64.62q-1.9-7.88-3.83-15.74c-.15-.61,0-.8.59-.94q11.72-2.8,23.42-5.66l15.33-3.74,21.86-5.32,8-1.92c.37-.09.75-.14,1.13-.22a.48.48,0,0,1,.12.17,4.77,4.77,0,0,0,.19,1.88c1.32,5.59,2.72,11.15,4,16.74.49,2.05,1,4.08,1.49,6.14a11.64,11.64,0,0,0,.63,1.8c.3.76.84.93,1.86.7,2.53-.6,5-1.22,7.58-1.84l16.36-4q8-2,16-3.9c7.41-1.8,14.81-3.62,22.23-5.4,2.62-.63,5.22-1.33,7.86-1.9,1-.22,1.27-.07,1.63.94A22.71,22.71,0,0,0,197.62,48q2.77,11.53,5.6,23.07,2,8.19,4,16.37t4,16.36c.33,1.38.68,2.76,1,4.14a4.05,4.05,0,0,0,.65,1.54C213.33,110.53,213.23,110.74,212,111Z"/></g></g></g></svg>