<svg xmlns="http://www.w3.org/2000/svg" viewBox="0 0 241 245.91"><defs><style>.cls-1{fill:#444242;}.cls-2{fill:#3c6;}</style></defs><g id="Camada_2" data-name="Camada 2"><g id="Camada_1-2" data-name="Camada 1"><g id="Elemento1"><rect class="cls-1" x="25.37" y="18.91" width="215.63" height="227" rx="107.82"/><path class="cls-2" d="M57.93,13.26,1.14,130.52A116.37,116.37,0,0,1,1,99.21,115.19,115.19,0,0,1,11.61,63.56l.86-1.79A111.91,111.91,0,0,1,33.68,31.69,107.39,107.39,0,0,1,57.93,13.26Z"/><path class="cls-2" d="M108.28,0,20.77,180.69A113.65,113.65,0,0,1,9.09,159.46L85,2.77A103,103,0,0,1,108.28,0Z"/><path class="cls-2" d="M129.25,2.05a103.45,103.45,0,0,1,19.13,5.86L50.66,209.67A106,106,0,0,1,34.8,197.08Z"/><path class="cls-2" d="M165.88,17.14a107,107,0,0,1,15.86,12.59l-94.46,195a103.12,103.12,0,0,1-19.12-5.86Z"/><path class="cls-2" d="M195.76,46.13a112.68,112.68,0,0,1,11.68,21.22L131.56,224a103.63,103.63,0,0,1-23.31,2.78Z"/><path class="cls-2" d="M204.92,163.26l-.86,1.78a111.91,111.91,0,0,1-21.21,30.08,107.55,107.55,0,0,1-24.24,18.43L215.4,96.3a116.7,116.7,0,0,1,.16,31.3A115.54,115.54,0,0,1,204.92,163.26Z"/></g></g></g></svg>