<svg xmlns="http://www.w3.org/2000/svg" viewBox="0 0 125.29 353.28"><defs><style>.cls-1{fill:#3c6;}.cls-2{fill:#444242;}</style></defs><g id="Camada_2" data-name="Camada 2"><g id="Camada_1-2" data-name="Camada 1"><g id="Elemento3"><path class="cls-1" d="M54.63,329.68c0,8.55-4.2,17.09-12.6,23.6L26.25,341.05c8.09-6.27,8.09-16.47,0-22.74L23,315.81c-16.79-13-16.79-34.18,0-47.19l3.23-2.5c8.09-6.27,8.08-16.47,0-22.74l-6.44-5c-16.8-13-16.8-34.18,0-47.19,3.91-3,6.07-7.08,6.07-11.37s-2.16-8.34-6.07-11.37L16.58,166c-16.79-13-16.79-34.18,0-47.19l3.33-2.58C28,110,28,99.77,20,93.5L12.4,87.58C-4,74.74-4.15,53.77,12.12,40.82l4.11-3.28C24.11,31.27,24,21.14,16,15l-3.53-2.74L28.29,0l3.53,2.73c16.56,12.84,16.75,33.86.41,46.87l-4.12,3.27c-7.83,6.24-7.78,16.35.14,22.54l7.57,5.92c16.64,13,16.58,34.13-.14,47.09L32.36,131c-3.92,3-6.08,7.08-6.08,11.37s2.16,8.34,6.08,11.37l3.22,2.5c8.14,6.3,12.62,14.68,12.62,23.6s-4.48,17.29-12.62,23.59-8.09,16.47,0,22.74l6.45,5c16.79,13,16.79,34.18,0,47.19l-3.23,2.5c-8.09,6.27-8.09,16.47,0,22.74L42,306.08C50.43,312.59,54.63,321.14,54.63,329.68Z"/><path class="cls-2" d="M125.29,329.68c0,8.55-4.2,17.09-12.59,23.6L96.92,341.05c8.09-6.27,8.09-16.47,0-22.74l-3.23-2.5c-16.79-13-16.79-34.18,0-47.19l3.23-2.5c8.09-6.27,8.09-16.47,0-22.74l-6.45-5c-16.79-13-16.79-34.18,0-47.19,3.92-3,6.08-7.08,6.08-11.37s-2.16-8.34-6.08-11.37L87.25,166c-16.8-13-16.8-34.18,0-47.19l3.32-2.58c8.06-6.24,8.08-16.42.07-22.69l-7.58-5.92c-16.42-12.84-16.54-33.81-.27-46.76l4.11-3.28c7.88-6.27,7.78-16.4-.2-22.58l-3.53-2.74L99,0l3.52,2.73c16.57,12.84,16.75,33.86.41,46.87l-4.11,3.27c-7.84,6.24-7.78,16.35.13,22.54l7.58,5.92c16.64,13,16.58,34.13-.14,47.09L103,131c-3.92,3-6.08,7.08-6.08,11.37s2.16,8.34,6.08,11.37l3.22,2.5c8.13,6.3,12.61,14.68,12.61,23.6s-4.48,17.29-12.61,23.59-8.09,16.47,0,22.74l6.45,5c16.79,13,16.79,34.18,0,47.19l-3.23,2.5c-8.09,6.27-8.09,16.47,0,22.74l3.23,2.49C121.09,312.59,125.29,321.14,125.29,329.68Z"/></g></g></g></svg>