<svg xmlns="http://www.w3.org/2000/svg" viewBox="0 0 240.94 240.95"><defs><style>.cls-1{font-size:43px;fill:#cec1c1;font-family:Poppins-Medium, Poppins;font-weight:500;}</style></defs><g id="Camada_2" data-name="Camada 2"><g id="Camada_1-2" data-name="Camada 1"><text class="cls-1" transform="translate(58.42 63.45) rotate(-42.69)">|</text><text class="cls-1" transform="translate(70.86 52.47) rotate(-32.36)"> </text><text class="cls-1" transform="translate(81.9 44.62) rotate(-17.79)">B</text><text class="cls-1" transform="translate(109.33 35.9) rotate(2.56)">A</text><text class="cls-1" transform="translate(140.82 37.27) rotate(24.96)">C</text><text class="cls-1" transform="matrix(0.69, 0.72, -0.72, 0.69, 171.95, 52.71)">K</text><text class="cls-1" transform="translate(191.48 74.18) rotate(64.49)">E</text><text class="cls-1" transform="translate(202.35 96.02) rotate(83.89)">N</text><text class="cls-1" transform="matrix(-0.27, 0.96, -0.96, -0.27, 205.5, 128.42)">D</text><text class="cls-1" transform="translate(195.25 159.2) rotate(121.24)"> </text><text class="cls-1" transform="translate(187.96 171) rotate(131.58)">|</text><text class="cls-1" transform="matrix(-0.79, 0.62, -0.62, -0.79, 176.67, 183.17)"> </text><text class="cls-1" transform="translate(166.17 191.85) rotate(154.84)">F</text><text class="cls-1" transform="translate(144.4 202.17) rotate(172.94)">R</text><text class="cls-1" transform="translate(115.81 206.04) rotate(-165.57)">O</text><text class="cls-1" transform="translate(81.92 196.72) rotate(-142.67)">N</text><text class="cls-1" transform="matrix(-0.54, -0.84, 0.84, -0.54, 56.51, 176.25)">T</text><text class="cls-1" transform="translate(42.64 154.07) rotate(-105.68)">E</text><text class="cls-1" transform="translate(35.68 130.67) rotate(-86.45)">N</text><text class="cls-1" transform="translate(38.03 98.23) rotate(-64.58)">D</text><text class="cls-1" transform="matrix(0.66, -0.75, 0.75, 0.66, 53.38, 69.63)"> </text><text class="cls-1" transform="translate(62.71 59.24) rotate(-39.55)"> </text></g></g></svg>